<!DOCTYPE svg PUBLIC "-//W3C//DTD SVG 1.1//EN" "http://www.w3.org/Graphics/SVG/1.1/DTD/svg11.dtd">
<!-- Uploaded to: SVG Repo, www.svgrepo.com, Transformed by: SVG Repo Mixer Tools -->
<svg fill="#ffffff" width="800px" height="800px" viewBox="0 0 24 24" role="img" xmlns="http://www.w3.org/2000/svg" stroke="#ffffff" stroke-width="0.4800000000000001">
<g id="SVGRepo_bgCarrier" stroke-width="0"/>
<g id="SVGRepo_tracerCarrier" stroke-linecap="round" stroke-linejoin="round" stroke="#CCCCCC" stroke-width="0.096"/>
<g id="SVGRepo_iconCarrier">
<path d="M9.422 10.723h-1.35v3.807h2.458v-4.048h2.94v4.337h-1.35v1.35h-1.349v2.458h2.458v-2.7h2.699v-5.204h-1.35v-1.35H9.422zm1.35 11.952h2.457v-2.458H10.77v2.458zm-2.676-20H6.747v1.35h-1.35v1.348H4.049v1.35h-1.35v6.699H1.35v1.35H0v2.457h1.35v1.35h1.349v1.349h2.458v-7.856h-1.35v-4.24h1.35v-1.35h1.349v-1.35h1.35V3.784h8.289v1.35h1.349v1.349h1.35v1.35h1.349v4.24h-1.35v7.856h2.458v-1.35h1.35v-1.35H24v-2.457h-1.35v-1.35h-1.349V6.724h-1.35v-1.35h-1.349v-1.35h-1.349v-1.35h-1.35V1.326H8.097v1.35z"/>
</g>
</svg>