<?xml version="1.0" encoding="UTF-8" standalone="no"?>
<!DOCTYPE svg PUBLIC "-//W3C//DTD SVG 1.1//EN" "http://www.w3.org/Graphics/SVG/1.1/DTD/svg11.dtd">
<svg width="100%" height="100%" viewBox="0 0 640 512" version="1.1" xmlns="http://www.w3.org/2000/svg" xmlns:xlink="http://www.w3.org/1999/xlink" xml:space="preserve" xmlns:serif="http://www.serif.com/" style="fill-rule:evenodd;clip-rule:evenodd;stroke-linejoin:round;stroke-miterlimit:2;">
    <g transform="matrix(0.984507,0,0,0.984507,4.95775,4.32676)">
        <path d="M211.8,0C219.6,0 226.1,5.7 228.5,13.2C240.8,51.9 277.1,80 320,80C362.9,80 399.2,51.9 411.5,13.2C413.9,5.7 420.4,0 428.2,0L440.8,0C463.3,0 485,7.9 502.3,22.3L628.5,127.4C635.1,132.9 639.2,140.9 639.9,149.5C640.6,158.1 637.8,166.6 632.1,173.1L576.1,237.1C564.7,250.2 544.9,251.7 531.5,240.6L480,197.7L480,448C480,483.3 451.3,512 416,512L224,512C188.7,512 160,483.3 160,448L160,197.7L108.5,240.6C95.2,251.7 75.4,250.2 63.9,237.1L7.9,173.1C2.2,166.6 -0.6,158.1 0.1,149.5C0.8,140.9 4.9,132.9 11.5,127.4L137.7,22.3C155,7.9 176.7,0 199.2,0L211.8,0Z" style="fill:white;fill-rule:nonzero;"/>
    </g>
</svg>
