<?xml version="1.0" encoding="UTF-8" standalone="no"?>
<!DOCTYPE svg PUBLIC "-//W3C//DTD SVG 1.1//EN" "http://www.w3.org/Graphics/SVG/1.1/DTD/svg11.dtd">
<svg width="100%" height="100%" viewBox="0 0 256 256" version="1.1" xmlns="http://www.w3.org/2000/svg" xmlns:xlink="http://www.w3.org/1999/xlink" xml:space="preserve" xmlns:serif="http://www.serif.com/" style="fill-rule:evenodd;clip-rule:evenodd;stroke-linejoin:round;stroke-miterlimit:2;">
    <g transform="matrix(1.06914,0,0,1.06914,-9.03049,-9.21076)">
        <path d="M245.333,128C245.333,192.8 192.8,245.333 128,245.333C63.2,245.333 10.667,192.8 10.667,128C10.667,63.2 63.2,10.667 128,10.667C192.8,10.667 245.333,63.2 245.333,128ZM128,74.667C98.742,74.667 74.667,98.742 74.667,128C74.667,157.258 98.742,181.333 128,181.333C157.258,181.333 181.333,157.258 181.333,128C181.333,98.742 157.258,74.667 128,74.667ZM64,128C64,92.891 92.891,64 128,64C163.109,64 192,92.891 192,128C192,163.109 163.109,192 128,192C92.891,192 64,163.109 64,128ZM160,128L106.667,96L106.667,160L160,128Z" style="fill:white;"/>
    </g>
</svg>
